<svg width="512" height="512" viewBox="0 0 512 512" fill="none" xmlns="http://www.w3.org/2000/svg">
  <defs>
    <linearGradient id="bgGrad" x1="0%" y1="0%" x2="100%" y2="100%">
      <stop offset="0%" style="stop-color:#9D72FF;stop-opacity:1" />
      <stop offset="100%" style="stop-color:#5A32A3;stop-opacity:1" />
    </linearGradient>
    
    <filter id="shadow" x="-20%" y="-20%" width="140%" height="140%">
      <feGaussianBlur in="SourceAlpha" stdDeviation="8" />
      <feOffset dx="0" dy="8" result="offsetblur" />
      <feComponentTransfer>
        <feFuncA type="linear" slope="0.3" />
      </feComponentTransfer>
      <feMerge>
        <feMergeNode />
        <feMergeNode in="SourceGraphic" />
      </feMerge>
    </filter>
  </defs>

  <rect width="512" height="512" rx="110" fill="url(#bgGrad)" />

  <g filter="url(#shadow)">
    <path d="M120 160C120 148.954 128.954 140 140 140H220L250 180H372C383.046 180 392 188.954 392 200V352C392 363.046 383.046 372 372 372H140C128.954 372 120 363.046 120 352V160Z" 
          stroke="white" 
          stroke-width="24" 
          stroke-linejoin="round" />
    
    <path d="M180 240V310M180 240L215 275L250 240M250 240V310" 
          stroke="white" 
          stroke-width="20" 
          stroke-linecap="round" 
          stroke-linejoin="round" />
    
    <rect x="275" y="240" width="4" height="70" fill="white">
    </rect>
  </g>
</svg>